<svg width="97" height="40" viewBox="0 0 97 40" fill="none" xmlns="http://www.w3.org/2000/svg">
<path d="M0 0H89C93.4183 0 97 3.58172 97 8V32C97 36.4183 93.4183 40 89 40H0V0Z" fill="#8A93E6"/>
<path d="M21.312 13.544H23.44L28.56 21.88H28.656L28.56 19.672V13.544H30.336V25H28.464L23.088 16.232H22.992L23.088 18.44V25H21.312V13.544ZM36.3926 25.256C35.5926 25.256 34.8726 25.0693 34.2326 24.696C33.6033 24.3227 33.1073 23.8107 32.7446 23.16C32.3926 22.4987 32.2166 21.7573 32.2166 20.936C32.2166 20.1573 32.3873 19.4373 32.7286 18.776C33.0806 18.104 33.566 17.5707 34.1846 17.176C34.8033 16.7813 35.5073 16.584 36.2966 16.584C37.118 16.584 37.8273 16.7653 38.4246 17.128C39.0326 17.4907 39.4913 17.9867 39.8006 18.616C40.1206 19.2453 40.2806 19.9547 40.2806 20.744C40.2806 20.8933 40.2646 21.08 40.2326 21.304H33.9766C34.0406 22.0613 34.3073 22.648 34.7766 23.064C35.2566 23.4693 35.8113 23.672 36.4406 23.672C36.942 23.672 37.374 23.56 37.7366 23.336C38.11 23.1013 38.4086 22.7867 38.6326 22.392L40.1206 23.096C39.7366 23.768 39.2353 24.296 38.6166 24.68C37.998 25.064 37.2566 25.256 36.3926 25.256ZM38.4886 19.96C38.4673 19.672 38.3766 19.3893 38.2166 19.112C38.0566 18.824 37.8113 18.584 37.4806 18.392C37.1606 18.2 36.766 18.104 36.2966 18.104C35.7313 18.104 35.2513 18.2747 34.8566 18.616C34.4726 18.9467 34.206 19.3947 34.0566 19.96H38.4886ZM40.8151 16.84H42.7191L44.3671 22.68H44.4311L46.2711 16.84H48.0791L49.9031 22.68H49.9671L51.6151 16.84H53.4871L50.8791 25H49.0231L47.1511 19.144H47.1031L45.2471 25H43.4231L40.8151 16.84ZM58.3678 13.544H60.1278V25H58.3678V13.544ZM65.9418 25.256C65.1204 25.256 64.3844 25.0693 63.7338 24.696C63.0831 24.312 62.5764 23.7893 62.2138 23.128C61.8511 22.4667 61.6698 21.7307 61.6698 20.92C61.6698 20.1093 61.8511 19.3733 62.2138 18.712C62.5764 18.0507 63.0831 17.5333 63.7338 17.16C64.3844 16.776 65.1204 16.584 65.9418 16.584C66.7631 16.584 67.4991 16.776 68.1498 17.16C68.8004 17.544 69.3071 18.0667 69.6698 18.728C70.0324 19.3893 70.2138 20.12 70.2138 20.92C70.2138 21.7307 70.0324 22.4667 69.6698 23.128C69.3071 23.7893 68.8004 24.312 68.1498 24.696C67.4991 25.0693 66.7631 25.256 65.9418 25.256ZM65.9418 23.64C66.3898 23.64 66.8058 23.5333 67.1898 23.32C67.5738 23.096 67.8778 22.7813 68.1018 22.376C68.3364 21.96 68.4538 21.4747 68.4538 20.92C68.4538 20.3653 68.3364 19.8853 68.1018 19.48C67.8778 19.0747 67.5738 18.7653 67.1898 18.552C66.8058 18.328 66.3898 18.216 65.9418 18.216C65.4938 18.216 65.0778 18.328 64.6938 18.552C64.3098 18.7653 64.0004 19.0747 63.7658 19.48C63.5418 19.8853 63.4298 20.3653 63.4298 20.92C63.4298 21.4747 63.5418 21.96 63.7658 22.376C64.0004 22.7813 64.3098 23.096 64.6938 23.32C65.0778 23.5333 65.4938 23.64 65.9418 23.64ZM74.9461 25.128C74.5835 25.128 74.2421 25.0693 73.9221 24.952C73.6021 24.8347 73.3408 24.68 73.1381 24.488C72.6795 24.0293 72.4501 23.4053 72.4501 22.616V18.392H71.0261V16.84H72.4501V14.536H74.2101V16.84H76.1941V18.392H74.2101V22.232C74.2101 22.6693 74.2955 22.9787 74.4661 23.16C74.6261 23.3733 74.9035 23.48 75.2981 23.48C75.4795 23.48 75.6395 23.4587 75.7781 23.416C75.9168 23.3627 76.0661 23.2827 76.2261 23.176V24.888C75.8741 25.048 75.4475 25.128 74.9461 25.128Z" fill="white"/>
</svg>
